<?xml version="1.0" encoding="utf-8"?>
<!-- Generated by IcoMoon.io -->
<!DOCTYPE svg PUBLIC "-//W3C//DTD SVG 1.1//EN" "http://www.w3.org/Graphics/SVG/1.1/DTD/svg11.dtd">
<svg version="1.1" xmlns="http://www.w3.org/2000/svg" xmlns:xlink="http://www.w3.org/1999/xlink" width="14" height="24" viewBox="0 0 14 24">
<path fill="#444444" d="M13.713 14.572q0 0.348-0.254 0.603l-6 6q-0.254 0.254-0.603 0.254t-0.603-0.254l-6-6q-0.254-0.254-0.254-0.603t0.254-0.603 0.603-0.254h11.999q0.348 0 0.603 0.254t0.254 0.603zM13.713 9.43q0 0.348-0.254 0.603t-0.603 0.254h-11.999q-0.348 0-0.603-0.254t-0.254-0.603 0.254-0.603l6-6q0.254-0.254 0.603-0.254t0.603 0.254l6 6q0.254 0.254 0.254 0.603z"></path>
</svg>
