<?xml version="1.0" encoding="utf-8"?>
<!-- Generated by IcoMoon.io -->
<!DOCTYPE svg PUBLIC "-//W3C//DTD SVG 1.1//EN" "http://www.w3.org/Graphics/SVG/1.1/DTD/svg11.dtd">
<svg version="1.1" xmlns="http://www.w3.org/2000/svg" xmlns:xlink="http://www.w3.org/1999/xlink" width="22" height="24" viewBox="0 0 22 24">
<path fill="#444444" d="M15.428 11.144q0-2.478-1.761-4.239t-4.239-1.761-4.239 1.761-1.761 4.239 1.761 4.239 4.239 1.761 4.239-1.761 1.761-4.239zM22.284 22.286q0 0.696-0.509 1.205t-1.205 0.509q-0.723 0-1.205-0.509l-4.593-4.58q-2.397 1.661-5.343 1.661-1.915 0-3.663-0.743t-3.013-2.009-2.009-3.013-0.743-3.663 0.743-3.663 2.009-3.013 3.013-2.009 3.663-0.743 3.663 0.743 3.013 2.009 2.009 3.013 0.743 3.663q0 2.946-1.661 5.343l4.593 4.593q0.496 0.496 0.496 1.205z"></path>
</svg>
