<?xml version="1.0" standalone="no"?>
<!DOCTYPE svg PUBLIC "-//W3C//DTD SVG 1.1//EN" "http://www.w3.org/Graphics/SVG/1.1/DTD/svg11.dtd" >
<svg xmlns="http://www.w3.org/2000/svg">
<metadata>Generated by IcoMoon</metadata>
<defs>
<font id="elliptical" horiz-adv-x="1024">
<font-face units-per-em="1024" ascent="960" descent="-64" />
<missing-glyph horiz-adv-x="1024" />
<glyph unicode="&#x20;" horiz-adv-x="512" d="" />
<glyph unicode="&#xe000;" glyph-name="core-profile" d="M512 416c-142 0-192 140-192 270 0 126 24 242 192 242s192-116 192-242c0-132-50-270-192-270zM512 896c-134 0-160-80-160-210 0-40 8-238 160-238s160 198 160 238c0 130-26 210-160 210zM512 96c-106 0-448 6-448 94 0 2 0 2 0 2 18 148 52 222 270 256 8 2 16-4 18-14 2-8-4-16-14-18-198-30-224-86-242-226 2-22 128-62 416-62s414 40 416 62c-18 140-44 196-242 226-10 2-16 10-14 18 2 10 10 16 18 14 218-34 252-108 270-256 0 0 0 0 0-2 0-88-342-94-448-94z" />
<glyph unicode="&#xe002;" glyph-name="core-download" d="M784 288h-128c-8 0-16 8-16 16s8 16 16 16h128c80 0 144 64 144 144 0 70-50 128-118 142-8 2-14 10-12 18 2 10 2 22 2 32 0 114-94 208-208 208-92 0-174-62-200-148 0-6-6-10-10-12-6 0-12 0-16 4-18 18-44 28-70 28-58 0-104-46-104-104 0-6 0-12 2-18 0-8-4-14-10-18-54-22-88-74-88-132 0-80 64-144 144-144h224c8 0 16-8 16-16s-8-16-16-16h-224c-98 0-176 78-176 176 0 66 38 128 96 158 0 2 0 6 0 10 0 74 62 136 136 136 26 0 52-8 74-22 36 90 124 150 222 150 132 0 240-108 240-240 0-8 0-14-2-22 76-22 130-90 130-170 0-98-78-176-176-176zM700 252c-6 6-18 6-24 0l-100-102v442c0 8-8 16-16 16s-16-8-16-16v-442l-100 102c-6 6-18 6-24 0s-6-18 0-24l128-128c2 0 4-2 6-2 2-2 4-2 6-2s4 0 6 2c2 0 4 2 6 2l128 128c6 6 6 18 0 24z" />
<glyph unicode="&#xe003;" glyph-name="core-map" d="M954 924c-4 4-10 4-16 4l-282-96-282 96c-2 0-4 0-6 0 0 0 0 0 0 0s0 0 0 0c-2 0-4 0-6 0l-288-96c-6-4-10-10-10-16v-704c0-6 2-10 6-14 4 0 6-2 10-2 2 0 4 0 6 0l282 96 282-96c2 0 4 0 6 0 0 0 0 0 0 0s0 0 0 0c2 0 4 0 6 0l288 96c6 2 10 10 10 16v704c0 6-2 10-6 12zM384 890l256-86v-670l-256 86zM96 804l256 86v-670l-256-86zM928 220l-256-86v670l256 86z" />
<glyph unicode="&#xe004;" glyph-name="core-profile-edit" d="M464 480c-130 0-176 126-176 232 0 100 20 216 176 216s176-116 176-216c0-106-46-232-176-232zM464 896c-120 0-144-74-144-184 0-34 6-200 144-200s144 166 144 200c0 110-24 184-144 184zM948 468l-32 32c-16 16-42 16-56 2l-28-28c0 0 0 0-2 0 0 0 0 0 0 0l-242-244v-2c0 0 0 0 0 0l-6-4c-2-2-2-4-4-6l-64-130c-4-8-2-14 2-20 4-2 8-4 12-4 2 0 4 0 8 2l130 64c2 2 4 2 4 4l278 278c16 14 16 40 0 56zM602 192l38-38-76-38zM666 174l-44 44 220 222 44-44zM926 434l-18-16-42 44 16 16c2 2 4 2 6 2 0 0 2 0 4-2l34-34c2-2 2-6 0-10zM464 192c-94 0-400 6-400 86 0 0 0 0 0 2 16 130 46 196 242 226 8 0 16-6 18-14 0-8-6-16-14-18-176-26-198-76-214-198 4-18 116-52 368-52 10 0 22 0 32 0 0 0 0 0 0 0 8 0 16-6 16-16 0-8-6-16-16-16s-22 0-32 0zM720 450c-2 0-4 2-6 2-24 8-56 16-96 22-8 2-14 10-14 18 2 8 10 14 18 14 42-6 76-14 104-24 8-2 12-12 10-20-4-8-10-12-16-12z" />
<glyph unicode="&#xe005;" glyph-name="core-upload" d="M784 288h-128c-8 0-16 8-16 16s8 16 16 16h128c80 0 144 64 144 144 0 70-50 128-118 142-8 2-14 10-12 18 2 10 2 22 2 32 0 114-94 208-208 208-92 0-174-62-200-148 0-6-6-10-10-12-6 0-12 0-16 4-18 18-44 28-70 28-58 0-104-46-104-104 0-6 0-12 2-18 0-8-4-14-10-18-54-22-88-74-88-132 0-80 64-144 144-144h224c8 0 16-8 16-16s-8-16-16-16h-224c-98 0-176 78-176 176 0 66 38 128 96 158 0 2 0 6 0 10 0 74 62 136 136 136 26 0 52-8 74-22 36 90 124 150 222 150 132 0 240-108 240-240 0-8 0-14-2-22 76-22 130-90 130-170 0-98-78-176-176-176zM700 476l-128 128c-2 0-4 2-6 2-4 2-8 2-12 0-2 0-4-2-6-2l-128-128c-6-6-6-18 0-24s18-6 24 0l100 102v-442c0-8 8-16 16-16s16 8 16 16v442l100-102c4-2 8-4 12-4s8 2 12 4c6 6 6 18 0 24z" />
<glyph unicode="&#xe006;" glyph-name="core-book" d="M832 864h-256c-34 0-62-18-80-44-18 26-46 44-80 44h-256c-36 0-64-28-64-64v-512c0-36 28-64 64-64h256c36 0 64-28 64-64h32c0 36 28 64 64 64h256c36 0 64 28 64 64v512c0 36-28 64-64 64zM416 256h-256c-18 0-32 14-32 32v512c0 18 14 32 32 32h256c36 0 64-28 64-64v-536c-16 14-40 24-64 24zM864 288c0-18-14-32-32-32h-256c-24 0-48-10-64-24v536c0 36 28 64 64 64h256c18 0 32-14 32-32z" />
<glyph unicode="&#xe007;" glyph-name="core-location" d="M496 64c-6 0-12 4-14 10l-230 494c-18 38-28 78-28 120 0 150 122 272 272 272s272-122 272-272c0-42-10-82-28-120l-230-494c-2-6-8-10-14-10zM496 928c-132 0-240-108-240-240 0-38 8-72 24-106l216-464 216 464c16 34 24 68 24 106 0 132-108 240-240 240zM496 576c-62 0-112 50-112 112s50 112 112 112c62 0 112-50 112-112s-50-112-112-112zM496 768c-44 0-80-36-80-80s36-80 80-80c44 0 80 36 80 80s-36 80-80 80z" />
<glyph unicode="&#xe008;" glyph-name="core-database" d="M512 960c-170 0-352-36-352-112v-672c0-76 182-112 352-112s352 36 352 112v672c0 76-182 112-352 112zM832 400c0-32-114-80-320-80s-320 48-320 80v174c60-42 194-62 320-62s260 20 320 62zM832 624c0-32-114-80-320-80s-320 48-320 80v174c60-42 194-62 320-62s260 20 320 62zM512 928c206 0 320-48 320-80s-114-80-320-80c-206 0-320 48-320 80s114 80 320 80zM512 96c-206 0-320 48-320 80v174c60-42 194-62 320-62s260 20 320 62v-174c0-32-114-80-320-80z" />
<glyph unicode="&#xe009;" glyph-name="core-database-edit" d="M400 928c-152 0-304-30-304-96v-576c0-66 152-96 304-96 22 0 44 0 64 2 10 0 16 8 16 16 0 10-8 16-16 16-22-2-42-2-64-2-176 0-272 38-272 64v146c52-34 162-50 272-50 152 0 304 30 304 96v384c0 66-152 96-304 96zM672 640c0-26-96-64-272-64s-272 38-272 64v146c52-34 162-50 272-50s220 16 272 50zM400 896c176 0 272-38 272-64s-96-64-272-64c-176 0-272 38-272 64s96 64 272 64zM400 384c-176 0-272 38-272 64v146c52-34 162-50 272-50s220 16 272 50v-146c0-26-96-64-272-64zM916 436l-32 32c-16 16-42 14-56 0l-28-26c0 0 0 0-2 0 0 0 0 0 0 0l-242-246c0 0 0 0 0 0s0 0 0 0l-6-6c-2 0-2-2-4-4l-64-130c-4-8-2-14 2-20 4-2 8-4 12-4 2 0 4 0 8 2l130 64c2 2 4 2 4 4l278 278c16 14 16 40 0 56zM570 160l38-38-76-38zM634 142l-44 44 220 222 44-44zM894 402l-18-16-42 44 16 16c2 2 4 2 6 2 0 0 2 0 4-2l34-34c2-2 2-8 0-10z" />
<glyph unicode="&#xe00a;" glyph-name="core-download-2" d="M832 64h-608v608h224v-32h-192v-544h544v544h-192v32h224zM644 540l-100-102v490h-32v-490l-100 102-24-24 140-138 140 138z" />
<glyph unicode="&#xe00b;" glyph-name="core-chevron-right" d="M364 196l-24 24 294 292-294 292 24 24 314-316z" />
<glyph unicode="&#xe00c;" glyph-name="core-list" d="M144 640c-44 0-80 36-80 80s36 80 80 80c44 0 80-36 80-80s-36-80-80-80zM144 768c-26 0-48-22-48-48s22-48 48-48c26 0 48 22 48 48s-22 48-48 48zM144 352c-44 0-80 36-80 80s36 80 80 80c44 0 80-36 80-80s-36-80-80-80zM144 480c-26 0-48-22-48-48s22-48 48-48c26 0 48 22 48 48s-22 48-48 48zM144 64c-44 0-80 36-80 80s36 80 80 80c44 0 80-36 80-80s-36-80-80-80zM144 192c-26 0-48-22-48-48s22-48 48-48c26 0 48 22 48 48s-22 48-48 48zM944 704h-608c-8 0-16 8-16 16s8 16 16 16h608c8 0 16-8 16-16s-8-16-16-16zM944 416h-608c-8 0-16 8-16 16s8 16 16 16h608c8 0 16-8 16-16s-8-16-16-16zM944 128h-608c-8 0-16 8-16 16s8 16 16 16h608c8 0 16-8 16-16s-8-16-16-16z" />
<glyph unicode="&#xe00d;" glyph-name="core-calendar" d="M832 800h-96v48c0 8-8 16-16 16s-16-8-16-16v-48h-384v48c0 8-8 16-16 16s-16-8-16-16v-48h-96c-36 0-64-28-64-64v-640c0-36 28-64 64-64h640c36 0 64 28 64 64v640c0 36-28 64-64 64zM192 768h96v-48c0-8 8-16 16-16s16 8 16 16v48h384v-48c0-8 8-16 16-16s16 8 16 16v48h96c18 0 32-14 32-32v-128h-704v128c0 18 14 32 32 32zM832 64h-640c-18 0-32 14-32 32v480h704v-480c0-18-14-32-32-32zM536 446c-6 2-12 2-16 0l-48-32c-8-6-10-16-6-22 6-8 16-10 22-6l24 16v-194c0-8 8-16 16-16s16 8 16 16v224c0 6-4 12-8 14z" />
<glyph unicode="&#xe00e;" glyph-name="core-edit" d="M736 128h-608v608h464v-32h-432v-544h544v432h32zM788 764l-340-342-26 26 342 340-24 24-356-358v-70h70l358 356zM854 822l-32 32c-6 6-14 10-22 10s-16-4-22-10l-24-22 78-78 12 12 10 12c6 6 10 14 10 22s-4 16-10 22z" />
<glyph unicode="&#xe00f;" glyph-name="core-chevron-down" d="M193.001 656.999l24 24 292-294 292 294 24-24-316-314z" />
<glyph unicode="&#xe010;" glyph-name="core-stack-2" d="M800 736v128h-736v-576h128v-128h736v576zM96 320v512h672v-96h-576v-416zM896 192h-672v512h672z" />
<glyph unicode="&#xe011;" glyph-name="core-comments" d="M304 64c-2 0-4 0-6 2-6 2-10 8-10 14v144h-160c-36 0-64 28-64 64v480c0 36 28 64 64 64h768c36 0 64-28 64-64v-480c0-36-28-64-64-64h-426l-154-156c-4-2-8-4-12-4zM128 800c-18 0-32-14-32-32v-480c0-18 14-32 32-32h176c8 0 16-8 16-16v-122l132 134c4 2 8 4 12 4h432c18 0 32 14 32 32v480c0 18-14 32-32 32zM336 480c-26 0-48 22-48 48s22 48 48 48c26 0 48-22 48-48s-22-48-48-48zM336 544c-8 0-16-8-16-16s8-16 16-16c8 0 16 8 16 16s-8 16-16 16zM528 480c-26 0-48 22-48 48s22 48 48 48c26 0 48-22 48-48s-22-48-48-48zM528 544c-8 0-16-8-16-16s8-16 16-16c8 0 16 8 16 16s-8 16-16 16zM720 480c-26 0-48 22-48 48s22 48 48 48c26 0 48-22 48-48s-22-48-48-48zM720 544c-8 0-16-8-16-16s8-16 16-16c8 0 16 8 16 16s-8 16-16 16z" />
<glyph unicode="&#xe012;" glyph-name="core-chevron-left" d="M628 196l-314 316 314 316 24-24-294-292 294-292z" />
<glyph unicode="&#xe013;" glyph-name="core-mail-2" d="M940 814c0 2 0 2-2 2 0 0 0 0 0 0-12 10-26 16-42 16h-768c-16 0-32-6-42-16 0 0-2 0-2-2 0 0 0 0 0 0-12-12-20-28-20-46v-512c0-36 28-64 64-64h768c36 0 64 28 64 64v512c0 18-8 36-20 46zM896 800c2 0 2 0 4 0l-366-368c-12-12-34-12-46 0l-366 368c2 0 4 0 6 0zM128 224c-2 0-6 0-8 2l228 226c6 6 6 18 0 24s-18 6-24 0l-226-228c-2 2-2 6-2 8v512c0 4 0 6 2 10l368-368c12-12 28-18 46-18 16 0 32 6 44 18l370 370c2-4 2-8 2-12v-512c0-2 0-6-2-8l-226 228c-6 6-18 6-24 0s-6-18 0-24l228-226c-2-2-6-2-8-2z" />
<glyph unicode="&#xe014;" glyph-name="core-clock" d="M512 128c-212 0-384 172-384 384s172 384 384 384c212 0 384-172 384-384s-172-384-384-384zM512 864c-194 0-352-158-352-352s158-352 352-352c194 0 352 158 352 352s-158 352-352 352zM320 480v32h192v256h32v-288z" />
<glyph unicode="&#xe015;" glyph-name="core-comments-2" d="M144 224c-4 0-6 0-10 2-4 4-6 10-6 16l18 108c-54 50-82 112-82 178 0 150 150 272 336 272s336-122 336-272c0-150-150-272-336-272-52 0-102 10-148 28l-100-58c-2-2-6-2-8-2zM174 368c4-4 6-8 4-14l-12-84 78 46c4 2 8 2 14 0 44-18 92-28 142-28 168 0 304 108 304 240s-136 240-304 240c-168 0-304-108-304-240 0-58 28-116 78-160zM880 96c-2 0-6 0-8 2l-100 58c-46-18-96-28-148-28-82 0-160 24-220 68-8 4-10 14-4 22 4 6 14 8 22 4 56-40 128-62 202-62 50 0 98 10 142 28 6 2 10 2 14 0l78-46-12 84c-2 6 0 10 4 14 50 44 78 102 78 160 0 92-66 174-170 216-8 2-12 12-8 20 2 8 12 12 20 8 118-44 190-138 190-244 0-66-28-128-82-178l18-108c0-6-2-12-6-16-4-2-6-2-10-2z" />
<glyph unicode="&#xe016;" glyph-name="core-search" d="M864 172l-228 228c42 52 68 120 68 192 0 168-136 304-304 304s-304-136-304-304c0-168 136-304 304-304 72 0 140 26 192 68l228-228zM128 592c0 150 122 272 272 272s272-122 272-272c0-150-122-272-272-272s-272 122-272 272z" />
<glyph unicode="&#xe017;" glyph-name="core-phone" d="M704 896h-384c-36 0-64-28-64-64v-768c0-36 28-64 64-64h384c36 0 64 28 64 64v768c0 36-28 64-64 64zM288 736h448v-576h-448zM320 864h384c18 0 32-14 32-32v-64h-448v64c0 18 14 32 32 32zM704 32h-384c-18 0-32 14-32 32v64h448v-64c0-18-14-32-32-32zM592 800h-96c-8 0-16 8-16 16s8 16 16 16h96c8 0 16-8 16-16s-8-16-16-16zM432 800c-4 0-8 2-12 4-2 4-4 8-4 12s2 8 4 12c6 6 18 6 24 0 2-4 4-8 4-12s-2-8-4-12c-4-2-8-4-12-4zM528 64h-32c-8 0-16 8-16 16s8 16 16 16h32c8 0 16-8 16-16s-8-16-16-16z" />
<glyph unicode="&#xe018;" glyph-name="core-lock-2" d="M816 640h-80v80c0 132-108 240-240 240s-240-108-240-240v-80h-80c-8 0-16-8-16-16v-496c0-36 28-64 64-64h544c36 0 64 28 64 64v496c0 8-8 16-16 16zM288 720c0 114 94 208 208 208s208-94 208-208v-80h-416zM800 128c0-18-14-32-32-32h-544c-18 0-32 14-32 32v480h608zM544 400c0 26-22 48-48 48s-48-22-48-48c0-20 14-38 32-46v-114c0-8 8-16 16-16s16 8 16 16v114c18 8 32 26 32 46zM496 384c-8 0-16 8-16 16s8 16 16 16c8 0 16-8 16-16s-8-16-16-16z" />
<glyph unicode="&#xe019;" glyph-name="core-shopping" d="M912 704h-208v64c0 106-86 192-192 192s-192-86-192-192v-64h-208c-8 0-16-8-16-16v-608c0-8 8-16 16-16h800c8 0 16 8 16 16v608c0 8-8 16-16 16zM352 768c0 88 72 160 160 160s160-72 160-160v-64h-320zM896 96h-768v576h192v-80c0-8 8-16 16-16s16 8 16 16v80h320v-80c0-8 8-16 16-16s16 8 16 16v80h192z" />
<glyph unicode="&#xe01a;" glyph-name="core-expand" d="M412 636l-262 260h154c8 0 16 8 16 16s-8 16-16 16h-192c-2 0-4 0-6-2-4 0-8-4-8-8-2-2-2-4-2-6v-192c0-8 8-16 16-16s16 8 16 16v154l260-262c4-2 8-4 12-4s8 2 12 4c6 6 6 18 0 24zM926 918c0 4-4 8-8 8-2 2-4 2-6 2h-192c-8 0-16-8-16-16s8-16 16-16h154l-262-260c-6-6-6-18 0-24 4-2 8-4 12-4s8 2 12 4l260 262v-154c0-8 8-16 16-16s16 8 16 16v192c0 2 0 4-2 6zM412 412c-6 6-18 6-24 0l-260-262v154c0 8-8 16-16 16s-16-8-16-16v-192c0-2 0-4 2-6 0-4 4-8 8-8 2-2 4-2 6-2h192c8 0 16 8 16 16s-8 16-16 16h-154l262 260c6 6 6 18 0 24zM928 304c0 8-8 16-16 16s-16-8-16-16v-154l-260 262c-6 6-18 6-24 0s-6-18 0-24l262-260h-154c-8 0-16-8-16-16s8-16 16-16h192c2 0 4 0 6 2 4 0 8 4 8 8 2 2 2 4 2 6z" />
<glyph unicode="&#xe01b;" glyph-name="core-share" d="M848 896c-62 0-112-50-112-112 0-36 18-70 46-90l-120-220c-12 4-24 6-38 6-20 0-40-6-56-14l-88 112c20 20 32 48 32 78 0 62-50 112-112 112s-112-50-112-112c0-36 18-70 46-90l-120-220c-12 4-24 6-38 6-62 0-112-50-112-112s50-112 112-112c62 0 112 50 112 112 0 36-18 70-46 90l120 220c12-4 24-6 38-6 20 0 40 6 56 14l88-112c-20-20-32-48-32-78 0-62 50-112 112-112s112 50 112 112c0 36-18 70-46 90l120 220c12-4 24-6 38-6 62 0 112 50 112 112s-50 112-112 112zM256 240c0-44-36-80-80-80s-80 36-80 80c0 44 36 80 80 80s80-36 80-80zM320 656c0 44 36 80 80 80s80-36 80-80c0-44-36-80-80-80s-80 36-80 80zM704 368c0-44-36-80-80-80s-80 36-80 80c0 44 36 80 80 80s80-36 80-80zM848 704c-44 0-80 36-80 80s36 80 80 80c44 0 80-36 80-80s-36-80-80-80z" />
<glyph unicode="&#xe01c;" glyph-name="core-refresh" d="M956 428l-96 96c-2 0-4 2-6 2-4 2-8 2-12 0-2 0-4-2-6-2l-96-96c-6-6-6-18 0-24s18-6 24 0l64 66c-20-156-154-278-316-278-140 0-266 94-306 228-4 8-12 14-20 10-8-2-14-10-12-20 46-146 184-250 338-250 182 0 332 138 350 316l70-72c4-2 8-4 12-4s8 2 12 4c6 6 6 18 0 24zM850 612c-44 148-184 252-338 252-182 0-332-138-350-316l-70 72c-6 6-18 6-24 0s-6-18 0-24l96-96c2 0 4-2 6-2 2-2 4-2 6-2s4 0 6 2c2 0 4 2 6 2l96 96c6 6 6 18 0 24s-18 6-24 0l-64-66c20 156 154 278 316 278 140 0 266-94 306-228 4-8 12-14 20-12 10 4 14 12 12 20z" />
<glyph unicode="&#xe01d;" glyph-name="core-power" d="M496 608c-8 0-16 8-16 16v320c0 8 8 16 16 16s16-8 16-16v-320c0-8-8-16-16-16zM496 64c-202 0-368 166-368 368 0 164 110 310 268 354 8 2 18-2 20-12 2-8-4-16-12-18-144-42-244-174-244-324 0-186 150-336 336-336s336 150 336 336c0 150-100 282-244 324-8 2-14 10-12 18 4 10 12 14 20 12 158-44 268-190 268-354 0-202-166-368-368-368z" />
<glyph unicode="&#xe01e;" glyph-name="core-checkbox" d="M784 64h-704c-8 0-16 8-16 16v704c0 8 8 16 16 16h704c8 0 16-8 16-16v-96c0-8-8-16-16-16s-16 8-16 16v80h-672v-672h672v416c0 8 8 16 16 16s16-8 16-16v-432c0-8-8-16-16-16zM432 224c-4 0-8 2-12 4l-160 160c-6 6-6 18 0 24s18 6 24 0l148-150 500 502c6 6 18 6 24 0s6-18 0-24l-512-512c-4-2-8-4-12-4z" />
<glyph unicode="&#xe01f;" glyph-name="core-filter" d="M560 32c-4 0-8 2-12 4l-128 128c-2 4-4 8-4 12v346l-316 314c-4 6-6 12-2 18 2 6 8 10 14 10h768c6 0 12-4 14-10 4-6 2-12-2-18l-316-314v-474c0-6-4-12-10-14-2-2-4-2-6-2zM448 182l96-96v442c0 4 2 8 4 12l294 292h-692l294-292c2-4 4-8 4-12z" />
<glyph unicode="&#xe020;" glyph-name="core-info" d="M496 0c-238 0-432 194-432 432s194 432 432 432c238 0 432-194 432-432s-194-432-432-432zM496 832c-220 0-400-180-400-400s180-400 400-400c220 0 400 180 400 400s-180 400-400 400zM496 576c-26 0-48 22-48 48s22 48 48 48c26 0 48-22 48-48s-22-48-48-48zM496 640c-8 0-16-8-16-16s8-16 16-16c8 0 16 8 16 16s-8 16-16 16zM496 160c-26 0-48 22-48 48v288c0 26 22 48 48 48s48-22 48-48v-288c0-26-22-48-48-48zM496 512c-8 0-16-8-16-16v-288c0-8 8-16 16-16s16 8 16 16v288c0 8-8 16-16 16z" />
<glyph unicode="&#xe021;" glyph-name="core-warning" d="M496 192c-26 0-48 22-48 48s22 48 48 48c26 0 48-22 48-48s-22-48-48-48zM496 256c-8 0-16-8-16-16s8-16 16-16c8 0 16 8 16 16s-8 16-16 16zM496 320c-26 0-48 22-48 48v256c0 26 22 48 48 48s48-22 48-48v-256c0-26-22-48-48-48zM496 640c-8 0-16-8-16-16v-256c0-8 8-16 16-16s16 8 16 16v256c0 8-8 16-16 16zM848 64h-704c-62 0-112 50-112 112 0 22 10 48 12 50 0 0 0 2 0 2l360 556c0 0 0 0 0 2 22 28 56 46 92 46s70-18 92-46c0-2 0-2 0-2l360-556c0 0 0-2 0-2 2-4 12-28 12-50 0-62-50-112-112-112zM72 212c-2-6-8-24-8-36 0-44 36-80 80-80h704c44 0 80 36 80 80 0 12-6 30-8 36l-360 556c0 0 0 0 0 0-14 20-38 32-64 32s-50-12-64-32c0 0 0 0 0 0z" />
<glyph unicode="&#xe022;" glyph-name="core-folder" d="M944 704h-48v32c0 36-28 64-64 64h-384c-32 0-40 10-52 26s-28 38-76 38h-192c-36 0-64-28-64-64v-608c0-36 28-64 64-64h768c36 0 64 28 64 64v496c0 8-8 16-16 16zM128 688v-528c-18 0-32 14-32 32v608c0 18 14 32 32 32h192c32 0 40-10 52-26s28-38 76-38h384c18 0 32-14 32-32v-32h-720c-8 0-16-8-16-16zM928 192c0-18-14-32-32-32h-736v512h768z" />
<glyph unicode="&#xe023;" glyph-name="core-document-download" d="M636 220c-6 6-18 6-24 0l-100-102v442c0 8-8 16-16 16s-16-8-16-16v-442l-100 102c-6 6-18 6-24 0s-6-18 0-24l128-128c2 0 4-2 6-2 2-2 4-2 6-2s4 0 6 2c2 0 4 2 6 2l128 128c6 6 6 18 0 24zM796 748l-176 176c-4 2-8 4-12 4h-352c-36 0-64-28-64-64v-640c0-36 28-64 64-64h48c8 0 16 8 16 16s-8 16-16 16h-48c-18 0-32 14-32 32v640c0 18 14 32 32 32h320v-128c0-36 28-64 64-64h128v-480c0-18-14-32-32-32h-48c-8 0-16-8-16-16s8-16 16-16h48c36 0 64 28 64 64v512c0 4-2 8-4 12zM608 768v122l154-154h-122c-18 0-32 14-32 32z" />
<glyph unicode="&#xe024;" glyph-name="core-print" d="M864 608h-128v160c0 4-2 8-4 12l-112 112c-4 2-8 4-12 4h-336c-8 0-16-8-16-16v-272h-128c-36 0-64-28-64-64v-288c0-36 28-64 64-64h128v-176c0-8 8-16 16-16h448c8 0 16 8 16 16v176h128c36 0 64 28 64 64v288c0 36-28 64-64 64zM698 768h-90v90zM288 864h288v-112c0-8 8-16 16-16h112v-192h-416zM704 32h-416v320h416zM896 256c0-18-14-32-32-32h-128v144c0 8-8 16-16 16h-448c-8 0-16-8-16-16v-144h-128c-18 0-32 14-32 32v288c0 18 14 32 32 32h128v-48c0-8 8-16 16-16h448c8 0 16 8 16 16v48h128c18 0 32-14 32-32z" />
<glyph unicode="&#xe025;" glyph-name="core-document-edit" d="M700 748l-176 176c-4 2-8 4-12 4h-320c-36 0-64-28-64-64v-640c0-36 28-64 64-64h208c8 0 16 8 16 16s-8 16-16 16h-208c-18 0-32 14-32 32v640c0 18 14 32 32 32h288v-128c0-36 28-64 64-64h128v-208c0-8 8-16 16-16s16 8 16 16v240c0 4-2 8-4 12zM512 768v122l154-154h-122c-18 0-32 14-32 32zM852 468l-32 32c-16 16-42 14-56 0l-28-26c0 0 0 0-2 0 0 0 0 0 0 0l-242-246c0 0 0 0 0 0v0l-6-6c-2 0-2-2-4-4l-64-130c-4-8-2-14 2-20 4-2 8-4 12-4 2 0 4 0 8 2l130 64c2 2 4 2 4 4l278 278c16 14 16 40 0 56zM504 192l40-38-76-38zM570 174l-44 44 220 222 44-44zM830 434l-18-16-42 44 16 16c2 2 4 2 6 2 0 0 2 0 4-2l34-34c2-2 2-8 0-10z" />
<glyph unicode="&#xe026;" glyph-name="core-document-email" d="M700 748l-176 176c-4 2-8 4-12 4h-320c-36 0-64-28-64-64v-640c0-36 28-64 64-64h176c8 0 16 8 16 16s-8 16-16 16h-176c-18 0-32 14-32 32v640c0 18 14 32 32 32h288v-128c0-36 28-64 64-64h128v-240c0-8 8-16 16-16s16 8 16 16v272c0 4-2 8-4 12zM512 768v122l154-154h-122c-18 0-32 14-32 32zM852 406c0 0 0 0-2 0 0 0 0 0 0 0-6 6-16 10-26 10h-368c-10 0-20-4-26-10 0 0-2 0-2 0 0-2 0-2 0-2-8-6-12-16-12-28v-272c0-22 18-40 40-40h368c22 0 40 18 40 40v272c0 12-4 22-12 30zM748 204c-6 6-18 6-24 0s-6-18 0-24l86-84h-340l86 84c6 6 6 18 0 24s-18 6-24 0l-84-86v244l164-166c8-6 18-12 28-12 12 0 22 6 30 12l162 168v-246zM472 384h336l-162-164c-2-4-8-4-10 0z" />
<glyph unicode="&#xe027;" glyph-name="core-screen" d="M896 800h-768c-36 0-64-28-64-64v-480c0-36 28-64 64-64h384v-34l-210-30c-10-2-16-10-14-18 2-10 10-16 18-14l222 32 222-32c0 0 2 0 2 0 8 0 14 6 16 14s-6 16-14 18l-210 30v34h352c36 0 64 28 64 64v480c0 36-28 64-64 64zM928 256c0-18-14-32-32-32h-768c-18 0-32 14-32 32v480c0 18 14 32 32 32h768c18 0 32-14 32-32z" />
<glyph unicode="&#xe028;" glyph-name="core-document-search" d="M732 748l-176 176c-4 2-8 4-12 4h-320c-36 0-64-28-64-64v-640c0-36 28-64 64-64h208c8 0 16 8 16 16s-8 16-16 16h-208c-18 0-32 14-32 32v640c0 18 14 32 32 32h288v-128c0-36 28-64 64-64h128v-144c0-8 8-16 16-16s16 8 16 16v176c0 4-2 8-4 12zM544 768v122l154-154h-122c-18 0-32 14-32 32zM704 480c-88 0-160-72-160-160 0-38 14-74 36-102l-128-126c-6-6-6-18 0-24 4-2 8-4 12-4s8 2 12 4l126 128c28-22 64-36 102-36 88 0 160 72 160 160s-72 160-160 160zM704 192c-70 0-128 58-128 128s58 128 128 128c70 0 128-58 128-128s-58-128-128-128z" />
<glyph unicode="&#xe029;" glyph-name="core-document-trash" d="M732 748l-176 176c-4 2-8 4-12 4h-320c-36 0-64-28-64-64v-640c0-36 28-64 64-64h272c8 0 16 8 16 16s-8 16-16 16h-272c-18 0-32 14-32 32v640c0 18 14 32 32 32h288v-128c0-36 28-64 64-64h128v-176c0-8 8-16 16-16s16 8 16 16v208c0 4-2 8-4 12zM544 768v122l154-154h-122c-18 0-32 14-32 32zM624 128c-8 0-16 8-16 16v192c0 8 8 16 16 16s16-8 16-16v-192c0-8-8-16-16-16zM688 128c-8 0-16 8-16 16v192c0 8 8 16 16 16s16-8 16-16v-192c0-8-8-16-16-16zM752 128c-8 0-16 8-16 16v192c0 8 8 16 16 16s16-8 16-16v-192c0-8-8-16-16-16zM848 416h-80c0 36-28 64-64 64h-32c-36 0-64-28-64-64v0h-80c-8 0-16-8-16-16s8-16 16-16h16v-256c0-36 28-64 64-64h160c36 0 64 28 64 64v256h16c8 0 16 8 16 16s-8 16-16 16zM640 416c0 18 14 32 32 32h32c18 0 32-14 32-32v0h-96zM800 128c0-18-14-32-32-32h-160c-18 0-32 14-32 32v256h224z" />
<glyph unicode="&#xe02a;" glyph-name="core-document" d="M828 748l-176 176c-4 2-8 4-12 4h-416c-36 0-64-28-64-64v-736c0-36 28-64 64-64h544c36 0 64 28 64 64v608c0 4-2 8-4 12zM794 736h-122c-18 0-32 14-32 32v122zM768 96h-544c-18 0-32 14-32 32v736c0 18 14 32 32 32h384v-128c0-36 28-64 64-64h128v-576c0-18-14-32-32-32z" />
<glyph unicode="&#xe02b;" glyph-name="core-documents" d="M668 620l-144 144c-4 2-8 4-12 4h-320c-36 0-64-28-64-64v-576c0-36 28-64 64-64h416c36 0 64 28 64 64v480c0 4-2 8-4 12zM634 608h-90c-18 0-32 14-32 32v90zM608 96h-416c-18 0-32 14-32 32v576c0 18 14 32 32 32h288v-96c0-36 28-64 64-64h96v-448c0-18-14-32-32-32zM368 800c-8 0-16 8-16 16v48c0 36 28 64 64 64 8 0 16-8 16-16s-8-16-16-16c-18 0-32-14-32-32v-48c0-8-8-16-16-16zM892 780l-144 144c-4 2-8 4-12 4h-320c-8 0-16-8-16-16s8-16 16-16h288v-96c0-36 28-64 64-64h96v-448c0-18-14-32-32-32h-112c-8 0-16-8-16-16s8-16 16-16h112c36 0 64 28 64 64v480c0 4-2 8-4 12zM736 800v90l122-122h-90c-18 0-32 14-32 32z" />
<glyph unicode="&#xe02c;" glyph-name="core-contact-list" d="M720 672h-352c-8 0-16 8-16 16s8 16 16 16h352c8 0 16-8 16-16s-8-16-16-16zM656 576h-224c-8 0-16 8-16 16s8 16 16 16h224c8 0 16-8 16-16s-8-16-16-16zM800 928h-544c-36 0-64-28-64-64v-64h-16c-8 0-16-8-16-16s8-16 16-16h16v-64h-16c-8 0-16-8-16-16s8-16 16-16h16v-64h-16c-8 0-16-8-16-16s8-16 16-16h16v-64h-16c-8 0-16-8-16-16s8-16 16-16h16v-64h-16c-8 0-16-8-16-16s8-16 16-16h16v-64h-16c-8 0-16-8-16-16s8-16 16-16h16v-64h-16c-8 0-16-8-16-16s8-16 16-16h16v-64c0-36 28-64 64-64h544c36 0 64 28 64 64v736c0 36-28 64-64 64zM832 128c0-18-14-32-32-32h-544c-18 0-32 14-32 32v64h48c8 0 16 8 16 16s-8 16-16 16h-48v64h48c8 0 16 8 16 16s-8 16-16 16h-48v64h48c8 0 16 8 16 16s-8 16-16 16h-48v64h48c8 0 16 8 16 16s-8 16-16 16h-48v64h48c8 0 16 8 16 16s-8 16-16 16h-48v64h48c8 0 16 8 16 16s-8 16-16 16h-48v64h48c8 0 16 8 16 16s-8 16-16 16h-48v64c0 18 14 32 32 32h544c18 0 32-14 32-32z" />
<glyph unicode="&#xe02f;" glyph-name="core-home-2" d="M512 896l-512-512 96-96 96 96 64-384h192v192h128v-192h192l64 384 96-96 96 96-512 512zM512 485.492c-49.988 0-90.512 40.521-90.512 90.508s40.524 90.511 90.512 90.511c49.984 0 90.511-40.524 90.511-90.511 0-49.988-40.527-90.508-90.511-90.508z" />
<glyph unicode="&#xe031;" glyph-name="core-tag" d="M752 672c-44 0-80 36-80 80s36 80 80 80c44 0 80-36 80-80s-36-80-80-80zM752 800c-26 0-48-22-48-48s22-48 48-48c26 0 48 22 48 48s-22 48-48 48zM416 96c-18 0-34 6-46 18l-256 256c-12 12-18 28-18 46s6 34 18 46l432 448c12 12 28 18 46 18h272c36 0 64-28 64-64v-272c0-18-6-34-18-46l-448-432c-12-12-28-18-46-18zM592 896c-8 0-16-4-22-10l-432-448c-6-6-10-14-10-22s4-16 10-22l256-256c12-12 32-12 44 0l448 432c6 6 10 14 10 22v272c0 18-14 32-32 32z" />
<glyph unicode="&#xe035;" glyph-name="core-checkmark-2" d="M983.057 896c-334.5-253.167-655.302-591.799-655.302-591.799l-231.18 207.799-96.576-98.378c95.017-89.302 315.162-325.197 389.632-413.622 209.59 350.18 427.478 611.335 634.368 850.154l-40.943 45.846z" />
<glyph unicode="&#xe05d;" glyph-name="core-circle" d="M512 960c-282.769 0-512-229.231-512-512s229.231-512 512-512 512 229.231 512 512-229.231 512-512 512zM512 0c-247.424 0-448 200.576-448 448s200.576 448 448 448 448-200.576 448-448-200.576-448-448-448z" />
<glyph unicode="&#xe075;" glyph-name="core-chevron-up" d="M193.001 367.001l24-24 292 294 292-294 24 24-316 314z" />
<glyph unicode="&#xe077;" glyph-name="core-control-end" d="M96 160c-36 0-64 28-64 64v576c0 36 28 64 64 64 12 0 24-4 36-12l448-286c18-12 28-32 28-54s-10-42-28-54l-448-286c-12-8-24-12-36-12zM96 832c-18 0-32-14-32-32v-576c0-18 14-32 32-32 6 0 12 2 20 6l446 288c8 6 14 16 14 26s-6 20-14 26l-446 288c-8 4-14 6-20 6zM928 160c-36 0-64 28-64 64v576c0 36 28 64 64 64s64-28 64-64v-576c0-36-28-64-64-64zM928 832c-18 0-32-14-32-32v-576c0-18 14-32 32-32s32 14 32 32v576c0 18-14 32-32 32zM736 160c-36 0-64 28-64 64v576c0 36 28 64 64 64s64-28 64-64v-576c0-36-28-64-64-64zM736 832c-18 0-32-14-32-32v-576c0-18 14-32 32-32s32 14 32 32v576c0 18-14 32-32 32z" />
<glyph unicode="&#xe078;" glyph-name="core-control-forward" d="M96 192c-36 0-64 28-64 64v480c0 36 28 64 64 64 12 0 24-4 36-12l352-240c18-10 28-30 28-52s-10-42-28-54l-350-238c-14-8-26-12-38-12zM96 768c-18 0-32-14-32-32v-480c0-18 14-32 32-32 6 0 12 2 20 6l350 240c8 6 14 16 14 26s-6 20-14 26l-350 240c-8 4-14 6-20 6zM576 192c-36 0-64 28-64 64v480c0 36 28 64 64 64 12 0 24-4 36-12l352-240c18-10 28-30 28-52s-10-42-28-54l-350-238c-14-8-26-12-38-12zM576 768c-18 0-32-14-32-32v-480c0-18 14-32 32-32 6 0 12 2 20 6l350 240c8 6 14 16 14 26s-6 20-14 26l-350 240c-8 4-14 6-20 6z" />
<glyph unicode="&#xe083;" glyph-name="core-control-next" d="M160 160c-36 0-64 28-64 64v576c0 36 28 64 64 64 12 0 24-4 36-12l448-286c18-12 28-32 28-54s-10-42-28-54l-448-286c-12-8-24-12-36-12zM160 832c-18 0-32-14-32-32v-576c0-18 14-32 32-32 6 0 12 2 20 6l446 288c8 6 14 16 14 26s-6 20-14 26l-446 288c-8 4-14 6-20 6zM832 160c-36 0-64 28-64 64v576c0 36 28 64 64 64s64-28 64-64v-576c0-36-28-64-64-64zM832 832c-18 0-32-14-32-32v-576c0-18 14-32 32-32s32 14 32 32v576c0 18-14 32-32 32z" />
<glyph unicode="&#xe085;" glyph-name="core-control-pause" d="M384 160h-64c-36 0-64 28-64 64v576c0 36 28 64 64 64h64c36 0 64-28 64-64v-576c0-36-28-64-64-64zM320 832c-18 0-32-14-32-32v-576c0-18 14-32 32-32h64c18 0 32 14 32 32v576c0 18-14 32-32 32zM704 160h-64c-36 0-64 28-64 64v576c0 36 28 64 64 64h64c36 0 64-28 64-64v-576c0-36-28-64-64-64zM640 832c-18 0-32-14-32-32v-576c0-18 14-32 32-32h64c18 0 32 14 32 32v576c0 18-14 32-32 32z" />
<glyph unicode="&#xe086;" glyph-name="core-control-play" d="M288 128c-36 0-64 28-64 64v640c0 36 28 64 64 64 12 0 24-4 36-12l480-318c18-12 28-32 28-54s-10-42-28-54l-478-318c-14-8-26-12-38-12zM288 864c-18 0-32-14-32-32v-640c0-18 14-32 32-32 6 0 12 2 20 6l478 320c8 6 14 16 14 26s-6 20-14 26l-478 320c-8 4-14 6-20 6z" />
<glyph unicode="&#xe087;" glyph-name="core-control-previous" d="M192 160c-36 0-64 28-64 64v576c0 36 28 64 64 64s64-28 64-64v-576c0-36-28-64-64-64zM192 832c-18 0-32-14-32-32v-576c0-18 14-32 32-32s32 14 32 32v576c0 18-14 32-32 32zM864 160c-12 0-24 4-36 12l-448 286c-18 12-28 32-28 54s10 42 28 54l448 286c12 8 24 12 36 12 36 0 64-28 64-64v-576c0-36-28-64-64-64zM864 832c-6 0-12-2-20-6l-446-288c-8-6-14-16-14-26s6-20 14-26l446-288c8-4 14-6 20-6 18 0 32 14 32 32v576c0 18-14 32-32 32z" />
<glyph unicode="&#xe08d;" glyph-name="core-control-reverse" d="M736 128c-12 0-24 4-36 12l-480 318c-18 12-28 32-28 54s10 42 28 54l478 318c48 30 102-4 102-52v-640c0-36-28-64-64-64zM736 864c-6 0-12-2-20-6l-478-320c-8-6-14-16-14-26s6-20 14-26l478-320c26-16 52 2 52 26v640c0 18-14 32-32 32z" />
<glyph unicode="&#xe08f;" glyph-name="core-control-rewind" d="M448 192c-12 0-24 4-36 12l-352 240c-18 10-28 30-28 52s10 42 28 54l350 238c48 30 102-4 102-52v-480c0-36-28-64-64-64zM448 768c-6 0-12-2-20-6l-350-240c-8-6-14-16-14-26s6-20 14-26l350-240c26-16 52 2 52 26v480c0 18-14 32-32 32zM928 192c-12 0-24 4-36 12l-352 240c-18 10-28 30-28 52s10 42 28 54l350 238c48 30 102-4 102-52v-480c0-36-28-64-64-64zM928 768c-6 0-12-2-20-6l-350-240c-8-6-14-16-14-26s6-20 14-26l350-240c26-16 52 2 52 26v480c0 18-14 32-32 32z" />
<glyph unicode="&#xe091;" glyph-name="core-control-start" d="M928 160c-12 0-24 4-36 12l-448 286c-18 12-28 32-28 54s10 42 28 54l448 286c12 8 24 12 36 12 36 0 64-28 64-64v-576c0-36-28-64-64-64zM928 832c-6 0-12-2-20-6l-446-288c-8-6-14-16-14-26s6-20 14-26l446-288c8-4 14-6 20-6 18 0 32 14 32 32v576c0 18-14 32-32 32zM96 160c-36 0-64 28-64 64v576c0 36 28 64 64 64s64-28 64-64v-576c0-36-28-64-64-64zM96 832c-18 0-32-14-32-32v-576c0-18 14-32 32-32s32 14 32 32v576c0 18-14 32-32 32zM288 160c-36 0-64 28-64 64v576c0 36 28 64 64 64s64-28 64-64v-576c0-36-28-64-64-64zM288 832c-18 0-32-14-32-32v-576c0-18 14-32 32-32s32 14 32 32v576c0 18-14 32-32 32z" />
<glyph unicode="&#xe092;" glyph-name="core-control-stop" d="M800 160h-576c-36 0-64 28-64 64v576c0 36 28 64 64 64h576c36 0 64-28 64-64v-576c0-36-28-64-64-64zM224 832c-18 0-32-14-32-32v-576c0-18 14-32 32-32h576c18 0 32 14 32 32v576c0 18-14 32-32 32z" />
<glyph unicode="&#xe094;" glyph-name="core-volume" d="M704 512c0 70-36 132-96 166v202c0 26-22 48-48 48-10 0-20-4-30-10l-296-246h-106c-36 0-64-28-64-64v-192c0-36 28-64 64-64h106l298-246c8-6 18-10 28-10 26 0 48 22 48 48v202c60 34 96 96 96 166zM576 144c0-8-8-16-16-16-4 0-6 2-10 2l-300 250c-2 2-6 4-10 4h-112c-18 0-32 14-32 32v192c0 18 14 32 32 32h112c4 0 8 2 10 4l300 248c4 2 6 4 10 4 8 0 16-8 16-16zM608 384v256c40-30 64-78 64-128s-24-98-64-128zM820 220c-4 0-10 2-12 6-6 6-6 16 2 22 74 68 118 164 118 264s-44 196-118 264c-6 6-8 16-2 22s16 8 22 2c82-74 130-178 130-288s-48-214-130-288c-2-2-6-4-10-4zM728 310c-4 0-8 2-12 6-6 8-4 18 2 24 52 42 82 104 82 172 0 66-30 130-80 172-8 6-8 16-2 22 4 8 14 8 22 2 58-48 92-120 92-196s-34-148-94-198c-2-2-6-4-10-4z" />
<glyph unicode="&#xe096;" glyph-name="core-mute" d="M704 512c0 70-36 132-96 166v202c0 26-22 48-48 48-10 0-20-4-30-10l-296-246h-106c-36 0-64-28-64-64v-192c0-36 28-64 64-64h106l298-246c8-6 18-10 28-10 26 0 48 22 48 48v202c60 34 96 96 96 166zM576 144c0-8-8-16-16-16-4 0-6 2-10 2l-300 250c-2 2-6 4-10 4h-112c-18 0-32 14-32 32v192c0 18 14 32 32 32h112c4 0 8 2 10 4l300 248c4 2 6 4 10 4 8 0 16-8 16-16zM608 384v256c40-30 64-78 64-128s-24-98-64-128zM886 512l102 100c6 6 6 18 0 24s-18 6-24 0l-100-102-100 102c-6 6-18 6-24 0s-6-18 0-24l102-100-102-100c-6-6-6-18 0-24 4-2 8-4 12-4s8 2 12 4l100 102 100-102c4-2 8-4 12-4s8 2 12 4c6 6 6 18 0 24z" />
<glyph unicode="&#xe097;" glyph-name="core-settings" d="M288 688c0 56-42 102-96 110v114c0 8-8 16-16 16s-16-8-16-16v-114c-54-8-96-54-96-110s42-102 96-110v-466c0-8 8-16 16-16s16 8 16 16v466c54 8 96 54 96 110zM176 608c-44 0-80 36-80 80s36 80 80 80c44 0 80-36 80-80s-36-80-80-80zM608 336c0 56-42 102-96 110v466c0 8-8 16-16 16s-16-8-16-16v-466c-54-8-96-54-96-110s42-102 96-110v-114c0-8 8-16 16-16s16 8 16 16v114c54 8 96 54 96 110zM496 256c-44 0-80 36-80 80s36 80 80 80c44 0 80-36 80-80s-36-80-80-80zM928 560c0 56-42 102-96 110v242c0 8-8 16-16 16s-16-8-16-16v-242c-54-8-96-54-96-110s42-102 96-110v-338c0-8 8-16 16-16s16 8 16 16v338c54 8 96 54 96 110zM816 480c-44 0-80 36-80 80s36 80 80 80c44 0 80-36 80-80s-36-80-80-80z" />
<glyph unicode="&#xe098;" glyph-name="core-settings-2" d="M864 64h-736c-36 0-64 28-64 64v736c0 36 28 64 64 64h736c36 0 64-28 64-64v-736c0-36-28-64-64-64zM128 896c-18 0-32-14-32-32v-736c0-18 14-32 32-32h736c18 0 32 14 32 32v736c0 18-14 32-32 32zM576 336c0 38-28 70-64 78v402c0 8-8 16-16 16s-16-8-16-16v-402c-36-8-64-40-64-78s28-70 64-78v-82c0-8 8-16 16-16s16 8 16 16v82c36 8 64 40 64 78zM496 288c-26 0-48 22-48 48s22 48 48 48c26 0 48-22 48-48s-22-48-48-48zM800 496c0 38-28 70-64 78v242c0 8-8 16-16 16s-16-8-16-16v-242c-36-8-64-40-64-78s28-70 64-78v-242c0-8 8-16 16-16s16 8 16 16v242c36 8 64 40 64 78zM720 448c-26 0-48 22-48 48s22 48 48 48c26 0 48-22 48-48s-22-48-48-48zM352 656c0 38-28 70-64 78v82c0 8-8 16-16 16s-16-8-16-16v-82c-36-8-64-40-64-78s28-70 64-78v-402c0-8 8-16 16-16s16 8 16 16v402c36 8 64 40 64 78zM272 608c-26 0-48 22-48 48s22 48 48 48c26 0 48-22 48-48s-22-48-48-48z" />
<glyph unicode="&#xe158;" glyph-name="core-circle-filled" d="M0 448c0 282.768 229.232 512 512 512s512-229.232 512-512c0-282.768-229.232-512-512-512s-512 229.232-512 512z" />
<glyph unicode="&#xe900;" glyph-name="core-arrow-left" d="M727.408 6.736l-454.352 441.28 454.352 441.248 23.536-24.224-429.36-417.024 429.36-417.040z" />
<glyph unicode="&#xe901;" glyph-name="core-arrow-right" d="M268.224-51.408l-26.624 27.44 485.968 471.952-485.968 472.032 26.624 27.392 514.176-499.424z" />
<glyph unicode="&#xe902;" glyph-name="core-arrow-up" d="M88.672 205.44l-24.608 23.904 447.952 461.216 447.92-461.216-24.56-23.904-423.36 435.904zM512.016 690.56l-447.952-461.216 24.608-23.904 423.344 435.904 423.36-435.904 24.56 23.904z" />
<glyph unicode="&#xe903;" glyph-name="core-arrow-down" d="M88.672 690.56l-24.608-23.904 447.952-461.216 447.92 461.216-24.56 23.904-423.36-435.904zM512.016 205.44l-447.952 461.216 24.608 23.904 423.344-435.904 423.36 435.904 24.56-23.904z" />
<glyph unicode="&#xe904;" glyph-name="core-arrow-forward" d="M687.648 780l-26.384-26.368 286.928-286.976h-943.824v-37.328h943.872l-286.976-286.928 26.384-26.416 332 332z" />
<glyph unicode="&#xe905;" glyph-name="core-arrow-back" d="M951.616 464.144h-817.376l248.496 248.496-22.848 22.848-287.504-287.488 287.504-287.504 22.848 22.816-248.512 248.544h817.392z" />
<glyph unicode="&#xe906;" glyph-name="core-cross" d="M1013.84 918.576l-31.232 31.28-470.608-470.576-470.576 470.576-31.264-31.28 470.576-470.576-470.576-470.576 31.264-31.296 470.576 470.64 470.608-470.64 31.232 31.296-470.576 470.576z" />
<glyph unicode="&#xe907;" glyph-name="core-square" d="M962.672-2.672h-901.344v901.344h901.344v-901.344zM98.56 34.56h826.88v826.88h-826.88v-826.88z" />
<glyph unicode="&#xe908;" glyph-name="core-stack" d="M512 427.92l458.736 222.112-458.736 222.112-458.736-222.112 458.736-222.112zM512 842.704l398-192.672-398-192.704-397.984 192.704 397.984 192.672zM762.56 317.344l147.44-71.392-398-192.672-397.952 192.672 147.648 71.488-16.736 21.312-191.696-92.8 458.736-222.096 458.736 222.096-191.392 92.704zM762.56 516.4l147.44-71.376-398-192.624-397.952 192.624 147.648 71.472-16.736 21.344-191.696-92.816 458.736-222.080 458.736 222.080-191.392 92.72z" />
<glyph unicode="&#xe909;" glyph-name="core-trash" d="M874.080 792.64h-233.376c1.952 5.52 3.216 11.36 3.216 17.52v33.856c0 28.992-23.536 52.512-52.512 52.512h-164.080c-28.96 0-52.512-23.536-52.512-52.512v-33.872c0-6.16 1.28-12 3.248-17.52h-228.176c-9.664 0-17.488-7.808-17.488-17.488 0-9.664 7.808-17.488 17.488-17.488h74.528c-2.16-5.44-3.424-11.312-3.424-17.504v-692.512c0-26.544 21.6-48.16 48.16-48.16h485.728c26.528 0 48.112 21.616 48.112 48.16v692.512c0 6.192-1.28 12.064-3.408 17.504h74.496c9.664 0 17.536 7.824 17.536 17.488 0 9.68-7.872 17.504-17.536 17.504zM409.84 810.144v33.872c0 9.664 7.84 17.52 17.488 17.52h164.080c9.68 0 17.552-7.84 17.552-17.52v-33.872c0-9.664-7.856-17.52-17.552-17.52h-164.080c-9.664 0.016-17.488 7.872-17.488 17.52zM776.72 740.144v-692.512c0-12.080-9.808-21.888-21.84-21.888h-485.744c-12.080 0-21.904 9.808-21.904 21.888v692.512c0 7.328 3.856 13.536 9.456 17.504h510.624c5.552-3.968 9.408-10.176 9.408-17.504zM361.024 650.8c-7.248 0-13.136-5.904-13.136-13.12v-487.568c0-7.264 5.888-13.12 13.136-13.12s13.12 5.856 13.12 13.12v487.552c0 7.232-5.872 13.136-13.12 13.136zM511.984 650.8c-7.248 0-13.12-5.904-13.12-13.12v-487.568c0-7.264 5.888-13.12 13.12-13.12 7.248 0 13.136 5.856 13.136 13.12v487.552c0 7.232-5.888 13.136-13.136 13.136zM665.136 136.992c7.264 0 13.12 5.856 13.12 13.12v487.552c0 7.216-5.856 13.12-13.12 13.12-7.216 0-13.12-5.904-13.12-13.12v-487.568c0-7.248 5.904-13.104 13.12-13.104z" />
<glyph unicode="&#xe90a;" glyph-name="core-mail" d="M54.112 735.344v-578.256h915.776v578.256h-915.776zM931.184 696.64v-28.624l-419.184-294.896-419.2 294.864v28.656h838.384zM92.8 195.776v424.896l408.048-287.024c3.328-2.368 7.232-3.536 11.136-3.536s7.76 1.152 11.088 3.536l408.096 287.040v-424.912h-838.368z" />
<glyph unicode="&#xe90b;" glyph-name="core-search-2" d="M368.688 339.232c-68.144 0-132.208 26.544-180.384 74.704-48.16 48.192-74.704 112.24-74.704 180.4 0 68.144 26.544 132.208 74.704 180.368 48.176 48.176 112.24 74.704 180.416 74.704 68.128 0 132.16-26.528 180.352-74.704 48.16-48.192 74.704-112.24 74.704-180.368s-26.544-132.176-74.704-180.352c-48.192-48.208-112.272-74.752-180.384-74.752zM368.72 802.832c-55.744 0-108.080-21.696-147.456-61.072-39.36-39.376-61.072-91.744-61.072-147.44s21.712-108.048 61.072-147.424c39.376-39.392 91.712-61.088 147.424-61.088 55.68 0 108.064 21.68 147.44 61.088 39.392 39.392 61.056 91.728 61.056 147.424s-21.664 108.064-61.056 147.44c-39.376 39.376-91.728 61.072-147.408 61.072zM885.12 54.592c-5.968 0-11.92 2.272-16.448 6.832l-352.544 352.544c-9.088 9.088-9.088 23.84 0 32.928 9.12 9.104 23.856 9.104 32.96 0l352.528-352.544c9.056-9.088 9.056-23.84 0-32.944-4.576-4.544-10.544-6.816-16.496-6.816z" />
<glyph unicode="&#xe90c;" glyph-name="core-menu" d="M69.104 765.584h885.776v-29.36h-885.776v29.36zM69.104 465.136h885.776v-29.376h-885.776v29.376zM69.104 159.808h885.776v-29.408h-885.776v29.408z" />
<glyph unicode="&#xe90d;" glyph-name="core-speech" d="M61.328 894.24v-626.272h174l-0.064-266.224 266.768 266.224h460.656v626.272h-901.36zM258.88 58.688l0.048 232.864h-174v579.12h854.112v-579.12h-446.768l-233.392-232.864z" />
<glyph unicode="&#xe90e;" glyph-name="core-lock" d="M511.999 277.333c-23.52 0-42.668 19.125-42.668 42.668 0 23.541 19.145 42.668 42.668 42.668 23.541 0 42.668-19.125 42.668-42.668 0-23.541-19.125-42.668-42.668-42.668zM511.999 149.334c-11.792 0-21.334 9.541-21.334 21.334v128.001c0 11.792 9.541 21.334 21.334 21.334s21.334-9.541 21.334-21.334v-128.001c0-11.792-9.541-21.334-21.334-21.334zM874.667-64h-725.335c-11.792 0-21.334 9.541-21.334 21.334v597.332c0 11.792 9.541 21.334 21.334 21.334h106.667v128.001c0 141.166 114.833 256 256 256s256-114.833 256-256v-128.001h106.667c11.792 0 21.334-9.541 21.334-21.334v-597.334c0-11.79-9.541-21.332-21.332-21.332zM170.666-21.332h682.667v554.667h-682.667v-554.667zM298.667 576h426.666v128.001c0 117.625-95.708 213.334-213.334 213.334s-213.332-95.708-213.332-213.334v-128.001z" />
<glyph unicode="&#xe90f;" glyph-name="core-unlock" d="M511.999 277.333c-23.52 0-42.668 19.125-42.668 42.668 0 23.541 19.145 42.668 42.668 42.668 23.541 0 42.668-19.125 42.668-42.668 0-23.541-19.125-42.668-42.668-42.668zM511.999 149.334c-11.792 0-21.334 9.541-21.334 21.334v128.001c0 11.792 9.541 21.334 21.334 21.334s21.334-9.541 21.334-21.334v-128.001c0-11.792-9.541-21.334-21.334-21.334zM874.667-64h-725.335c-11.792 0-21.334 9.541-21.334 21.334v597.332c0 11.792 9.541 21.334 21.334 21.334h576v128.001c0 117.625-95.708 213.334-213.334 213.334s-213.332-95.708-213.332-213.334h-42.668c0 141.166 114.833 256 256 256s256-114.833 256-256v-128.001h106.667c11.792 0 21.334-9.541 21.334-21.334v-597.334c0-11.79-9.541-21.332-21.332-21.332zM170.666-21.332h682.667v554.667h-682.667v-554.667z" />
<glyph unicode="&#xe910;" glyph-name="core-shopping-2" d="M805.792 705.376h-168.416v66.064c0 69.088-56.192 125.296-125.28 125.296s-125.296-56.208-125.296-125.296v-66.064h-158.848l-40.624-706.112h649.328l-30.864 706.112zM415.008 771.44c0 53.52 43.568 97.088 97.088 97.088 53.536 0 97.072-43.568 97.072-97.088v-66.064h-194.16v66.064zM254.576 677.184h132.224v-66.112h28.208v66.112h194.176v-66.112h28.208v66.112h141.44l28.368-649.776h-590l37.376 649.776z" />
<glyph unicode="&#xe911;" glyph-name="core-recycle" d="M899.648 417.456c-1.472-101.408-41.776-196.736-113.536-268.48-151.184-151.184-397.184-151.184-548.368 0-151.184 151.2-151.184 397.232 0 548.416 143.408 143.36 372 150.784 524.192 22.224l-137.2-35.296 6.992-33.744 197.936 46.928-0.992 0.96 0.8 0.224-38.544 196.16-33.328-8.736 28.096-141.616c-165.68 141.392-415.664 133.872-572.32-22.72-164.608-164.64-164.608-432.512 0-597.136 164.656-164.64 432.48-164.64 597.136 0 78.096 78.096 121.968 181.92 123.584 292.336l-34.448 0.48z" />
<glyph unicode="&#xe912;" glyph-name="core-checkmark" d="M926.992 767.552l-588.912-588.864-241.088 241.072-25.104-25.152 266.192-266.16 614.032 613.984z" />
<glyph unicode="&#xe913;" glyph-name="core-circle-2" d="M512.016 888.688c-243.008 0-440.688-197.696-440.688-440.688s197.68-440.688 440.688-440.688c242.96 0 440.656 197.696 440.656 440.688s-197.68 440.688-440.656 440.688zM512.016 39.584c-225.2 0-408.416 183.184-408.416 408.416 0 225.2 183.216 408.432 408.432 408.432 225.184 0 408.384-183.232 408.384-408.432-0.016-225.232-183.216-408.416-408.4-408.416z" />
<glyph unicode="&#xe914;" glyph-name="core-minus" d="M912.32 500.112h-800.624c-30.016 0-54.304-24.288-54.304-54.272 0-29.968 24.288-54.256 54.304-54.256h800.624c30 0 54.288 24.288 54.288 54.256-0.016 30-24.288 54.272-54.288 54.272z" />
<glyph unicode="&#xe915;" glyph-name="core-add" d="M898.24 506h-333.856v333.904c0 28.944-23.392 52.336-52.384 52.336-28.976 0-52.384-23.408-52.384-52.336v-333.904h-333.824c-29.008 0-52.384-23.424-52.384-52.352 0-28.912 23.392-52.32 52.384-52.32h333.808v-333.904c0-28.944 23.424-52.352 52.384-52.352 29.008 0 52.384 23.424 52.384 52.352v333.888h333.872c28.976 0 52.352 23.408 52.352 52.32 0 28.944-23.392 52.368-52.352 52.368z" />
<glyph unicode="&#xe916;" glyph-name="core-home" d="M957.808 433.040l-97.296 88.112v210.192c0 9.056-7.344 16.384-16.384 16.384h-85.648c-4.352 0-8.528-1.712-11.616-4.8s-4.816-7.264-4.768-11.632l0.224-103.088-212.208 192.208c-6.208 5.616-15.568 5.664-21.856 0.144l-441.92-389.248c-5.648-4.96-7.2-13.072-3.76-19.76 3.392-6.64 10.88-10.192 18.176-8.528l98.224 22.176v-302.928c-0.096-2.64-0.144-16.304 9.744-26.576 4.384-4.512 12.24-9.936 24.896-9.936 23.616 0 219.184 0.24 219.184 0.24 9.072 0 16.368 7.344 16.384 16.384l0.256 181.104c-0.16 2.112 0.224 7.472 2.4 9.856 1.472 1.568 4.624 1.936 6.96 1.936h90.992c4.080 0 9.6-0.656 12.432-3.6 3.12-3.2 3.072-8.768 3.024-9.632l-0.416-179.088c0-4.336 1.696-8.512 4.784-11.616 3.072-3.072 7.296-4.832 11.616-4.832h214.608c14.592 0 23.552 6.16 28.448 11.296 11.44 11.904 11.056 28.224 10.992 29.344v302.992l107.792-25.216c7.344-1.744 14.784 1.744 18.288 8.352 3.488 6.608 2.016 14.72-3.552 19.76zM774.928 714.944h52.832v-164.096l-52.576 47.616-0.256 116.48zM822.608 466.784c-4.832 1.152-10.016 0-13.904-3.12-3.904-3.104-6.208-7.84-6.208-12.848v-324.064c0-1.76-0.64-5.008-1.872-6.272-1.008-0.992-3.408-1.12-4.784-1.12h-198.176l0.352 161.52c0.144 1.968 0.976 19.52-11.664 33.088-6.064 6.416-17.248 14.096-36.576 14.096h-90.992c-16.336 0-26.064-6.96-31.344-12.784-11.248-12.464-11.056-29.168-10.768-33.856l-0.256-162.656c-47.52-0.048-183.376-0.224-202.816-0.224-0.592 0-0.96 0.032-1.2 0.032-0.032 0-0.080 0-0.112 0-0.304 0.656-0.528 1.904-0.528 3.024v324.096c0 4.976-2.304 9.696-6.176 12.816-3.904 3.104-9.008 4.24-13.84 3.184l-55.584-12.544 382.752 337.12 223.472-202.384v-0.976h1.056l145.344-131.648-66.176 15.52z" />
<glyph unicode="&#xe917;" glyph-name="core-home-22" d="M35.372 360.792h83.409v-333.632c0-19.66 16.086-35.746 35.746-35.746h244.267c19.66 0 35.746 16.086 35.746 35.746v244.267h148.942v-244.267c0-19.66 16.086-35.746 35.746-35.746h232.351c19.66 0 35.746 16.086 35.746 35.746v333.632h101.282c14.299 0 27.405 8.937 32.767 22.043s2.382 28.597-7.744 38.726l-465.894 472.446c-13.703 13.703-36.341 14.299-50.045 0.595l-486.744-472.446c-10.724-10.129-13.703-25.617-8.341-39.321 5.362-13.701 18.468-22.043 32.767-22.043zM521.521 818.344l381.293-386.060h-51.237c-19.66 0-35.746-16.086-35.746-35.746v-333.632h-160.858v244.267c0 19.66-16.086 35.746-35.746 35.746h-220.432c-19.66 0-35.746-16.086-35.746-35.746v-244.267h-172.774v333.632c0 19.66-16.086 35.746-35.746 35.746h-30.979l397.974 386.060z" />
<glyph unicode="&#xe918;" glyph-name="core-home-4" d="M873.183 415.446v-321.744c0-28.683-23.279-51.961-51.961-51.961h-618.443c-28.683 0-51.961 23.279-51.961 51.961v321.744c0 17.927 9.223 34.606 24.422 44.063l309.195 193.114c16.835 10.522 38.243 10.522 55.053 0l309.195-193.114c15.251-9.457 24.5-26.111 24.5-44.063zM999.604 559.067l-460.039 287.294c-16.835 10.522-38.217 10.522-55.053 0l-460.091-287.294c-24.344-15.199-31.722-47.259-16.55-71.603 15.173-24.37 47.181-31.8 71.603-16.576l432.525 270.146 432.473-270.094c8.574-5.352 18.057-7.898 27.513-7.898 17.329 0 34.242 8.652 44.089 24.448 15.225 24.37 7.82 56.378-16.472 71.577z" />
<glyph unicode="&#xe919;" glyph-name="core-tablet" d="M829.793 960h-635.586c-48.728 0-88.276-39.548-88.276-88.276v-847.448c0-48.728 39.548-88.276 88.276-88.276h635.586c48.728 0 88.276 39.548 88.276 88.276v847.448c0 48.728-39.548 88.276-88.276 88.276zM194.207 924.69h635.586c29.308 0 52.966-23.658 52.966-52.966v-697.379h-741.517v697.379c0 29.308 23.658 52.966 52.966 52.966zM829.793-28.69h-635.586c-29.308 0-52.966 23.658-52.966 52.966v132.414h741.517v-132.414c0-29.308-23.658-52.966-52.966-52.966zM547.31 59.586c0-19.501-15.809-35.31-35.31-35.31s-35.31 15.809-35.31 35.31c0 19.501 15.809 35.31 35.31 35.31s35.31-15.809 35.31-35.31zM194.207 651.034c4.943 0 8.828 3.884 8.828 8.828v203.034h132.414c4.943 0 8.828 3.884 8.828 8.828s-3.884 8.828-8.828 8.828h-141.241c-4.943 0-8.828-3.884-8.828-8.828v-211.862c0-4.943 3.884-8.828 8.828-8.828z" />
</font>
</defs>
</svg>
